# xmcd
#
# Track frame offsets:
#	150
#	16508
#	33438
#	48467
#	65869
#	80790
#	91576
#	105786
#	122632
#	138363
#	151945
#	168234
#	183920
#	203198
#	221625
#	240618
#	251511
#	269638
#	289033
#	306076
#	324767
#	341089
#
# Disc length: 4741 seconds
#
# Revision: 0
# Processed by: cddbd v1.5PL3 Copyright (c) Steve Scherf et al.
# Submitted via: dBpowerAMP V4.0
#
DISCID=2d128316
DTITLE=Ronnie Milsap - At His Best
DYEAR=1900
DGENRE=
TTITLE0=Am I Losing You
TTITLE1=Any Day Now
TTITLE2=Back On My Mind Again
TTITLE3=Button Off My Shirt
TTITLE4=Cowboys And Clowns
TTITLE5=Daydreams About Night Things
TTITLE6=Don't You Ever Get Tired (Of Hurting Me)
TTITLE7=Happy, Happy Birthday Baby
TTITLE8=Houston Solution
TTITLE9=I'm a Stand By My Woman Man
TTITLE10=It Was Almost Like A Song
TTITLE11=Let's Take the Long Way Around the World
TTITLE12=Lost In The Fifties Tonight
TTITLE13=Nobody Likes Sad Songs
TTITLE14=Prisoner Of The Highway
TTITLE15=Pure Love
TTITLE16=She Keeps the Home Fires Burning
TTITLE17=Since I Don't Have You
TTITLE18=Smokey Mountain Rain
TTITLE19=Stranger In My House
TTITLE20=The Freeze
TTITLE21=There's No Gettin' Over Me
EXTD=
EXTT0=
EXTT1=
EXTT2=
EXTT3=
EXTT4=
EXTT5=
EXTT6=
EXTT7=
EXTT8=
EXTT9=
EXTT10=
EXTT11=
EXTT12=
EXTT13=
EXTT14=
EXTT15=
EXTT16=
EXTT17=
EXTT18=
EXTT19=
EXTT20=
EXTT21=
PLAYORDER=
